*
*
G04 PADS 9.5 Build Number: 522968 generated Gerber (RS-274-X) file*
G04 PC Version=2.1*
*
%IN "ohm1.pcb"*%
*
%MOIN*%
*
%FSLAX35Y35*%
*
*
*
*
G04 PC Standard Apertures*
*
*
G04 Thermal Relief Aperture macro.*
%AMTER*
1,1,$1,0,0*
1,0,$1-$2,0,0*
21,0,$3,$4,0,0,45*
21,0,$3,$4,0,0,135*
%
*
*
G04 Annular Aperture macro.*
%AMANN*
1,1,$1,0,0*
1,0,$2,0,0*
%
*
*
G04 Odd Aperture macro.*
%AMODD*
1,1,$1,0,0*
1,0,$1-0.005,0,0*
%
*
*
G04 PC Custom Aperture Macros*
*
*
*
*
*
*
G04 PC Aperture Table*
*
%ADD010C,0.001*%
%ADD013C,0.01*%
%ADD133R,0.062X0.062*%
%ADD134C,0.062*%
%ADD145C,0.15948*%
%ADD150C,0.05712*%
%ADD151C,0.06106*%
%ADD154R,0.10137X0.10137*%
%ADD155C,0.10137*%
*
*
*
*
G04 PC Circuitry*
G04 Layer Name ohm1.pcb - circuitry*
%LPD*%
*
*
G04 PC Custom Flashes*
G04 Layer Name ohm1.pcb - flashes*
%LPD*%
*
*
G04 PC Circuitry*
G04 Layer Name ohm1.pcb - circuitry*
%LPD*%
*
G54D10*
G54D13*
G01X100000Y100000D02*
Y500000D01*
X400000*
Y275000*
X650000*
Y100000*
X100000*
G54D133*
X424084Y136542D03*
X299197Y155621D03*
G54D134*
X525433Y115248D03*
X535433D03*
X564399D03*
X574399D03*
X196323Y474810D03*
Y484810D03*
X206323Y474810D03*
Y484810D03*
X216323Y474810D03*
Y484810D03*
X226323Y474810D03*
Y484810D03*
X236323Y474810D03*
Y484810D03*
X246323Y474810D03*
Y484810D03*
X256323Y474810D03*
Y484810D03*
X434084Y136542D03*
Y146542D03*
X424084D03*
X434084Y156542D03*
X424084D03*
X434084Y166542D03*
X424084D03*
X434084Y176542D03*
X424084D03*
X434084Y186542D03*
X424084D03*
X434084Y196542D03*
X424084D03*
X434084Y206542D03*
X424084D03*
X434084Y216542D03*
X424084D03*
X434084Y226542D03*
X424084D03*
X434084Y236542D03*
X424084D03*
X434084Y246542D03*
X424084D03*
X434084Y256542D03*
X424084D03*
X299197Y205621D03*
X335589Y155621D03*
Y187117D03*
G54D145*
X375000Y130000D03*
Y470000D03*
X130000D03*
Y130000D03*
Y240000D03*
Y165000D03*
X131155Y427920D03*
Y375029D03*
G54D150*
X439473Y114704D03*
X301805Y475321D03*
X291805D03*
X281805D03*
X271805D03*
X232896Y364705D03*
X250592Y334404D03*
Y311080D03*
X459927Y114704D03*
X469927D03*
X479927D03*
X489927D03*
X193736Y135745D03*
X233494Y135298D03*
X214541Y134457D03*
X181825Y427920D03*
X181784Y375029D03*
G54D151*
X297751Y409184D03*
Y389971D03*
G54D154*
X214514Y168293D03*
X335720Y205663D03*
G54D155*
X194829Y168293D03*
X335720Y225348D03*
X0Y0D02*
M02*
