%
T1C.035F197S55
X019483Y016829
X021451Y016829
X02992Y015562
X042408Y014654
X042408Y015654
X042408Y013654
X042408Y016654
X042408Y017654
X042408Y018654
X043408Y016654
X043408Y014654
X043408Y017654
X043408Y015654
X043408Y018654
X043408Y013654
X043408Y019654
X043408Y020654
X043408Y021654
X043408Y022654
X043408Y023654
X042408Y019654
X042408Y021654
X042408Y022654
X042408Y020654
X042408Y023654
X033572Y022535
X033572Y020566
X02992Y020562
X042408Y024654
X042408Y025654
X043408Y025654
X043408Y024654
X025632Y047481
X025632Y048481
X024632Y047481
X024632Y048481
X023632Y047481
X023632Y048481
X022632Y048481
X022632Y047481
X021632Y048481
X021632Y047481
X020632Y048481
X020632Y047481
X019632Y047481
X019632Y048481
T2C.037F197S55
X025606Y017401
X026255Y014614
X027799Y015842
X033559Y015562
X033559Y018712
X052543Y011525
X053543Y011525
X05644Y011525
X05744Y011525
X031682Y025905
X030736Y025858
X029722Y025877
X028322Y019467
X026883Y022308
X025675Y022285
X024474Y022286
X023206Y01945
X02253Y021174
X021449Y022174
X027712Y029076
X028384Y027595
X028556Y029084
X032785Y029084
X03321Y027595
X033484Y029241
X03341Y040885
X032151Y040075
X028286Y037859
X028263Y039147
X02665Y0407
X02578Y040426
X024931Y038151
X024127Y041463
X024007Y040168
X023277Y0376
X019578Y040328
X021221Y044019
X023161Y045606
X02501Y04425
X0266Y04335
X028448Y041521
X028653Y043803
X029768Y043518
X02981Y041992
X029824Y042734
X018064Y046478
T3C.03937F197S55
X019374Y013575
X021454Y013446
X023349Y01353
X043947Y01147
X045993Y01147
X046993Y01147
X047993Y01147
X048993Y01147
X025059Y031108
X025059Y03344
X02329Y036471
X018178Y037503
X018182Y042792
X027181Y047532
X028181Y047532
X029181Y047532
X029775Y040918
X029775Y038997
X030181Y047532
T4C.11417F069S658
X013Y013
X013Y0165
X013Y024
X0375Y013
X0375Y047
X013115Y042792
X013115Y037503
X013Y047
M30
