*
*
G04 PADS 9.5 Build Number: 522968 generated Gerber (RS-274-X) file*
G04 PC Version=2.1*
*
%IN "ohm1.pcb"*%
*
%MOIN*%
*
%FSLAX35Y35*%
*
*
*
*
G04 PC Standard Apertures*
*
*
G04 Thermal Relief Aperture macro.*
%AMTER*
1,1,$1,0,0*
1,0,$1-$2,0,0*
21,0,$3,$4,0,0,45*
21,0,$3,$4,0,0,135*
%
*
*
G04 Annular Aperture macro.*
%AMANN*
1,1,$1,0,0*
1,0,$2,0,0*
%
*
*
G04 Odd Aperture macro.*
%AMODD*
1,1,$1,0,0*
1,0,$1-0.005,0,0*
%
*
*
G04 PC Custom Aperture Macros*
*
*
*
*
*
*
G04 PC Aperture Table*
*
%ADD010C,0.001*%
%ADD013C,0.01*%
%ADD133R,0.062X0.062*%
%ADD134C,0.062*%
%ADD145C,0.15948*%
%ADD146R,0.04X0.032*%
%ADD147R,0.032X0.04*%
%ADD148R,0.062X0.052*%
%ADD149R,0.052X0.062*%
%ADD150C,0.05712*%
%ADD151C,0.06106*%
%ADD152R,0.04413X0.08704*%
%ADD153R,0.06106X0.10043*%
%ADD154R,0.10137X0.10137*%
%ADD155C,0.10137*%
%ADD156R,0.05909X0.01775*%
%ADD157R,0.06302X0.03546*%
*
*
*
*
G04 PC Circuitry*
G04 Layer Name ohm1.pcb - circuitry*
%LPD*%
*
*
G04 PC Custom Flashes*
G04 Layer Name ohm1.pcb - flashes*
%LPD*%
*
*
G04 PC Circuitry*
G04 Layer Name ohm1.pcb - circuitry*
%LPD*%
*
G54D10*
G54D13*
G01X272962Y187089D02*
Y206752D01*
X273001Y206873*
X273076Y206975*
X273178Y207050*
X273299Y207089*
X277824*
Y213809*
X236105*
Y207089*
X240630*
X240751Y207050*
X240853Y206975*
X240928Y206873*
X240967Y206752*
Y187089*
X272962*
X236205Y207089D02*
Y213809D01*
X236705Y207089D02*
Y213809D01*
X237205Y207089D02*
Y213809D01*
X237705Y207089D02*
Y213809D01*
X238205Y207089D02*
Y213809D01*
X238705Y207089D02*
Y213809D01*
X239205Y207089D02*
Y213809D01*
X239705Y207089D02*
Y213809D01*
X240205Y207089D02*
Y213809D01*
X240705Y207065D02*
Y213809D01*
X241205Y187089D02*
Y213809D01*
X241705Y187089D02*
Y213809D01*
X242205Y187089D02*
Y213809D01*
X242705Y187089D02*
Y213809D01*
X243205Y187089D02*
Y213809D01*
X243705Y187089D02*
Y213809D01*
X244205Y187089D02*
Y213809D01*
X244705Y187089D02*
Y213809D01*
X245205Y187089D02*
Y213809D01*
X245705Y187089D02*
Y213809D01*
X246205Y187089D02*
Y213809D01*
X246705Y187089D02*
Y213809D01*
X247205Y187089D02*
Y213809D01*
X247705Y187089D02*
Y213809D01*
X248205Y187089D02*
Y213809D01*
X248705Y187089D02*
Y213809D01*
X249205Y187089D02*
Y213809D01*
X249705Y187089D02*
Y213809D01*
X250205Y187089D02*
Y213809D01*
X250705Y187089D02*
Y213809D01*
X251205Y187089D02*
Y213809D01*
X251705Y187089D02*
Y213809D01*
X252205Y187089D02*
Y213809D01*
X252705Y187089D02*
Y213809D01*
X253205Y187089D02*
Y213809D01*
X253705Y187089D02*
Y213809D01*
X254205Y187089D02*
Y213809D01*
X254705Y187089D02*
Y213809D01*
X255205Y187089D02*
Y213809D01*
X255705Y187089D02*
Y213809D01*
X256205Y187089D02*
Y213809D01*
X256705Y187089D02*
Y213809D01*
X257205Y187089D02*
Y213809D01*
X257705Y187089D02*
Y213809D01*
X258205Y187089D02*
Y213809D01*
X258705Y187089D02*
Y213809D01*
X259205Y187089D02*
Y213809D01*
X259705Y187089D02*
Y213809D01*
X260205Y187089D02*
Y213809D01*
X260705Y187089D02*
Y213809D01*
X261205Y187089D02*
Y213809D01*
X261705Y187089D02*
Y213809D01*
X262205Y187089D02*
Y213809D01*
X262705Y187089D02*
Y213809D01*
X263205Y187089D02*
Y213809D01*
X263705Y187089D02*
Y213809D01*
X264205Y187089D02*
Y213809D01*
X264705Y187089D02*
Y213809D01*
X265205Y187089D02*
Y213809D01*
X265705Y187089D02*
Y213809D01*
X266205Y187089D02*
Y213809D01*
X266705Y187089D02*
Y213809D01*
X267205Y187089D02*
Y213809D01*
X267705Y187089D02*
Y213809D01*
X268205Y187089D02*
Y213809D01*
X268705Y187089D02*
Y213809D01*
X269205Y187089D02*
Y213809D01*
X269705Y187089D02*
Y213809D01*
X270205Y187089D02*
Y213809D01*
X270705Y187089D02*
Y213809D01*
X271205Y187089D02*
Y213809D01*
X271705Y187089D02*
Y213809D01*
X272205Y187089D02*
Y213809D01*
X272705Y187089D02*
Y213809D01*
X273205Y207058D02*
Y213809D01*
X273705Y207089D02*
Y213809D01*
X274205Y207089D02*
Y213809D01*
X274705Y207089D02*
Y213809D01*
X275205Y207089D02*
Y213809D01*
X275705Y207089D02*
Y213809D01*
X276205Y207089D02*
Y213809D01*
X276705Y207089D02*
Y213809D01*
X277205Y207089D02*
Y213809D01*
X277705Y207089D02*
Y213809D01*
X294196Y297106D02*
Y270347D01*
X320955*
Y297106*
X294196*
X294355Y270347D02*
Y297106D01*
X294855Y270347D02*
Y297106D01*
X295355Y270347D02*
Y297106D01*
X295855Y270347D02*
Y297106D01*
X296355Y270347D02*
Y297106D01*
X296855Y270347D02*
Y297106D01*
X297355Y270347D02*
Y297106D01*
X297855Y270347D02*
Y297106D01*
X298355Y270347D02*
Y297106D01*
X298855Y270347D02*
Y297106D01*
X299355Y270347D02*
Y297106D01*
X299855Y270347D02*
Y297106D01*
X300355Y270347D02*
Y297106D01*
X300855Y270347D02*
Y297106D01*
X301355Y270347D02*
Y297106D01*
X301855Y270347D02*
Y297106D01*
X302355Y270347D02*
Y297106D01*
X302855Y270347D02*
Y297106D01*
X303355Y270347D02*
Y297106D01*
X303855Y270347D02*
Y297106D01*
X304355Y270347D02*
Y297106D01*
X304855Y270347D02*
Y297106D01*
X305355Y270347D02*
Y297106D01*
X305855Y270347D02*
Y297106D01*
X306355Y270347D02*
Y297106D01*
X306855Y270347D02*
Y297106D01*
X307355Y270347D02*
Y297106D01*
X307855Y270347D02*
Y297106D01*
X308355Y270347D02*
Y297106D01*
X308855Y270347D02*
Y297106D01*
X309355Y270347D02*
Y297106D01*
X309855Y270347D02*
Y297106D01*
X310355Y270347D02*
Y297106D01*
X310855Y270347D02*
Y297106D01*
X311355Y270347D02*
Y297106D01*
X311855Y270347D02*
Y297106D01*
X312355Y270347D02*
Y297106D01*
X312855Y270347D02*
Y297106D01*
X313355Y270347D02*
Y297106D01*
X313855Y270347D02*
Y297106D01*
X314355Y270347D02*
Y297106D01*
X314855Y270347D02*
Y297106D01*
X315355Y270347D02*
Y297106D01*
X315855Y270347D02*
Y297106D01*
X316355Y270347D02*
Y297106D01*
X316855Y270347D02*
Y297106D01*
X317355Y270347D02*
Y297106D01*
X317855Y270347D02*
Y297106D01*
X318355Y270347D02*
Y297106D01*
X318855Y270347D02*
Y297106D01*
X319355Y270347D02*
Y297106D01*
X319855Y270347D02*
Y297106D01*
X320355Y270347D02*
Y297106D01*
X320855Y270347D02*
Y297106D01*
X100000Y100000D02*
Y500000D01*
X400000*
Y275000*
X650000*
Y100000*
X100000*
G54D133*
X196323Y474810D03*
X299197Y155621D03*
G54D134*
X525433Y115248D03*
X535433D03*
X564399D03*
X574399D03*
X196323Y484810D03*
X206323Y474810D03*
Y484810D03*
X216323Y474810D03*
Y484810D03*
X226323Y474810D03*
Y484810D03*
X236323Y474810D03*
Y484810D03*
X246323Y474810D03*
Y484810D03*
X256323Y474810D03*
Y484810D03*
X434084Y136542D03*
X424084D03*
X434084Y146542D03*
X424084D03*
X434084Y156542D03*
X424084D03*
X434084Y166542D03*
X424084D03*
X434084Y176542D03*
X424084D03*
X434084Y186542D03*
X424084D03*
X434084Y196542D03*
X424084D03*
X434084Y206542D03*
X424084D03*
X434084Y216542D03*
X424084D03*
X434084Y226542D03*
X424084D03*
X434084Y236542D03*
X424084D03*
X434084Y246542D03*
X424084D03*
X434084Y256542D03*
X424084D03*
X299197Y205621D03*
X335589Y155621D03*
Y187117D03*
G54D145*
X375000Y130000D03*
Y470000D03*
X130000D03*
Y130000D03*
Y240000D03*
Y165000D03*
X131155Y427920D03*
Y375029D03*
G54D146*
X321406Y409400D03*
X315206D03*
X321406Y389967D03*
X315206D03*
X255508Y390961D03*
X249308D03*
X271266Y438029D03*
X277466D03*
X188018Y416163D03*
X181818D03*
X201978Y391226D03*
X195778D03*
X181818D03*
X188018D03*
X404482Y136497D03*
X398282D03*
X201978Y416163D03*
X195778D03*
X264942Y368280D03*
X271142D03*
G54D147*
X232767Y392523D03*
Y386323D03*
X223853Y406605D03*
Y400405D03*
X209385Y397771D03*
Y391571D03*
Y415772D03*
Y409572D03*
X212208Y455707D03*
Y449507D03*
X187982Y400641D03*
Y406841D03*
X222259Y455647D03*
Y461847D03*
X548198Y115219D03*
Y121419D03*
X592611Y115207D03*
Y121407D03*
G54D148*
X264995Y378585D03*
X273995D03*
G54D149*
X180641Y484800D03*
Y475800D03*
X277117Y311066D03*
Y302066D03*
X334843Y311066D03*
Y302066D03*
G54D150*
X439473Y114704D03*
X301805Y475321D03*
X291805D03*
X281805D03*
X271805D03*
X232896Y364705D03*
X250592Y334404D03*
Y311080D03*
X459927Y114704D03*
X469927D03*
X479927D03*
X489927D03*
X193736Y135745D03*
X233494Y135298D03*
X214541Y134457D03*
X181825Y427920D03*
X181784Y375029D03*
G54D151*
X297751Y409184D03*
Y389971D03*
G54D152*
X242673Y158421D03*
X249366D03*
X256059D03*
X262752D03*
X269445D03*
X256752Y204421D03*
G54D153*
X316631Y310892D03*
X307355Y299947D03*
X298521Y310892D03*
X307355Y275947D03*
G54D154*
X214514Y168293D03*
X335720Y205663D03*
G54D155*
X194829Y168293D03*
X335720Y225348D03*
G54D156*
X250819Y427282D03*
Y424723D03*
Y422164D03*
Y419605D03*
Y417046D03*
Y414487D03*
Y411927D03*
Y409368D03*
Y406809D03*
Y404250D03*
Y401691D03*
Y399132D03*
X273851D03*
Y401691D03*
Y404250D03*
Y406809D03*
Y409368D03*
Y411927D03*
Y414487D03*
Y417046D03*
Y419605D03*
Y422164D03*
Y424723D03*
Y427282D03*
G54D157*
X214488Y195995D03*
Y211743D03*
X191260D03*
Y195995D03*
X0Y0D02*
M02*
