*
*
G04 PADS 9.5 Build Number: 522968 generated Gerber (RS-274-X) file*
G04 PC Version=2.1*
*
%IN "ohm1.pcb"*%
*
%MOIN*%
*
%FSLAX35Y35*%
*
*
*
*
G04 PC Standard Apertures*
*
*
G04 Thermal Relief Aperture macro.*
%AMTER*
1,1,$1,0,0*
1,0,$1-$2,0,0*
21,0,$3,$4,0,0,45*
21,0,$3,$4,0,0,135*
%
*
*
G04 Annular Aperture macro.*
%AMANN*
1,1,$1,0,0*
1,0,$2,0,0*
%
*
*
G04 Odd Aperture macro.*
%AMODD*
1,1,$1,0,0*
1,0,$1-0.005,0,0*
%
*
*
G04 PC Custom Aperture Macros*
*
*
*
*
*
*
G04 PC Aperture Table*
*
%ADD010C,0.001*%
%ADD013C,0.01*%
%ADD017C,0.055*%
%ADD028C,0.06*%
%ADD047C,0.012*%
%ADD073R,0.038X0.03*%
%ADD080R,0.06X0.05*%
%ADD083R,0.06X0.06*%
%ADD135C,0.15748*%
%ADD136R,0.03X0.038*%
%ADD137R,0.05X0.06*%
%ADD138C,0.05512*%
%ADD139R,0.05709X0.01575*%
%ADD140C,0.05906*%
%ADD141R,0.04213X0.08504*%
%ADD142R,0.05906X0.09843*%
%ADD143R,0.06102X0.03346*%
%ADD144C,0.03*%
*
*
*
*
G04 PC Circuitry*
G04 Layer Name ohm1.pcb - circuitry*
%LPD*%
*
*
G04 PC Custom Flashes*
G04 Layer Name ohm1.pcb - flashes*
%LPD*%
*
*
G04 PC Circuitry*
G04 Layer Name ohm1.pcb - circuitry*
%LPD*%
*
G54D10*
G54D13*
G01X272862Y187189D02*
Y206768D01*
X272911Y206919*
X273004Y207047*
X273132Y207140*
X273283Y207189*
X277724*
Y213709*
X236205*
Y207189*
X240646*
X240797Y207140*
X240925Y207047*
X241018Y206919*
X241067Y206768*
Y187189*
X272862*
X236205Y207189D02*
Y213709D01*
X236705Y207189D02*
Y213709D01*
X237205Y207189D02*
Y213709D01*
X237705Y207189D02*
Y213709D01*
X238205Y207189D02*
Y213709D01*
X238705Y207189D02*
Y213709D01*
X239205Y207189D02*
Y213709D01*
X239705Y207189D02*
Y213709D01*
X240205Y207189D02*
Y213709D01*
X240705Y207170D02*
Y213709D01*
X241205Y187189D02*
Y213709D01*
X241705Y187189D02*
Y213709D01*
X242205Y187189D02*
Y213709D01*
X242705Y187189D02*
Y213709D01*
X243205Y187189D02*
Y213709D01*
X243705Y187189D02*
Y213709D01*
X244205Y187189D02*
Y213709D01*
X244705Y187189D02*
Y213709D01*
X245205Y187189D02*
Y213709D01*
X245705Y187189D02*
Y213709D01*
X246205Y187189D02*
Y213709D01*
X246705Y187189D02*
Y213709D01*
X247205Y187189D02*
Y213709D01*
X247705Y187189D02*
Y213709D01*
X248205Y187189D02*
Y213709D01*
X248705Y187189D02*
Y213709D01*
X249205Y187189D02*
Y213709D01*
X249705Y187189D02*
Y213709D01*
X250205Y187189D02*
Y213709D01*
X250705Y187189D02*
Y213709D01*
X251205Y187189D02*
Y213709D01*
X251705Y187189D02*
Y213709D01*
X252205Y187189D02*
Y213709D01*
X252705Y187189D02*
Y213709D01*
X253205Y187189D02*
Y213709D01*
X253705Y187189D02*
Y213709D01*
X254205Y187189D02*
Y213709D01*
X254705Y187189D02*
Y213709D01*
X255205Y187189D02*
Y213709D01*
X255705Y187189D02*
Y213709D01*
X256205Y187189D02*
Y213709D01*
X256705Y187189D02*
Y213709D01*
X257205Y187189D02*
Y213709D01*
X257705Y187189D02*
Y213709D01*
X258205Y187189D02*
Y213709D01*
X258705Y187189D02*
Y213709D01*
X259205Y187189D02*
Y213709D01*
X259705Y187189D02*
Y213709D01*
X260205Y187189D02*
Y213709D01*
X260705Y187189D02*
Y213709D01*
X261205Y187189D02*
Y213709D01*
X261705Y187189D02*
Y213709D01*
X262205Y187189D02*
Y213709D01*
X262705Y187189D02*
Y213709D01*
X263205Y187189D02*
Y213709D01*
X263705Y187189D02*
Y213709D01*
X264205Y187189D02*
Y213709D01*
X264705Y187189D02*
Y213709D01*
X265205Y187189D02*
Y213709D01*
X265705Y187189D02*
Y213709D01*
X266205Y187189D02*
Y213709D01*
X266705Y187189D02*
Y213709D01*
X267205Y187189D02*
Y213709D01*
X267705Y187189D02*
Y213709D01*
X268205Y187189D02*
Y213709D01*
X268705Y187189D02*
Y213709D01*
X269205Y187189D02*
Y213709D01*
X269705Y187189D02*
Y213709D01*
X270205Y187189D02*
Y213709D01*
X270705Y187189D02*
Y213709D01*
X271205Y187189D02*
Y213709D01*
X271705Y187189D02*
Y213709D01*
X272205Y187189D02*
Y213709D01*
X272705Y187189D02*
Y213709D01*
X273205Y207164D02*
Y213709D01*
X273705Y207189D02*
Y213709D01*
X274205Y207189D02*
Y213709D01*
X274705Y207189D02*
Y213709D01*
X275205Y207189D02*
Y213709D01*
X275705Y207189D02*
Y213709D01*
X276205Y207189D02*
Y213709D01*
X276705Y207189D02*
Y213709D01*
X277205Y207189D02*
Y213709D01*
X277705Y207189D02*
Y213709D01*
X294296Y297006D02*
Y270447D01*
X320855*
Y297006*
X294296*
X294355Y270447D02*
Y297006D01*
X294855Y270447D02*
Y297006D01*
X295355Y270447D02*
Y297006D01*
X295855Y270447D02*
Y297006D01*
X296355Y270447D02*
Y297006D01*
X296855Y270447D02*
Y297006D01*
X297355Y270447D02*
Y297006D01*
X297855Y270447D02*
Y297006D01*
X298355Y270447D02*
Y297006D01*
X298855Y270447D02*
Y297006D01*
X299355Y270447D02*
Y297006D01*
X299855Y270447D02*
Y297006D01*
X300355Y270447D02*
Y297006D01*
X300855Y270447D02*
Y297006D01*
X301355Y270447D02*
Y297006D01*
X301855Y270447D02*
Y297006D01*
X302355Y270447D02*
Y297006D01*
X302855Y270447D02*
Y297006D01*
X303355Y270447D02*
Y297006D01*
X303855Y270447D02*
Y297006D01*
X304355Y270447D02*
Y297006D01*
X304855Y270447D02*
Y297006D01*
X305355Y270447D02*
Y297006D01*
X305855Y270447D02*
Y297006D01*
X306355Y270447D02*
Y297006D01*
X306855Y270447D02*
Y297006D01*
X307355Y270447D02*
Y297006D01*
X307855Y270447D02*
Y297006D01*
X308355Y270447D02*
Y297006D01*
X308855Y270447D02*
Y297006D01*
X309355Y270447D02*
Y297006D01*
X309855Y270447D02*
Y297006D01*
X310355Y270447D02*
Y297006D01*
X310855Y270447D02*
Y297006D01*
X311355Y270447D02*
Y297006D01*
X311855Y270447D02*
Y297006D01*
X312355Y270447D02*
Y297006D01*
X312855Y270447D02*
Y297006D01*
X313355Y270447D02*
Y297006D01*
X313855Y270447D02*
Y297006D01*
X314355Y270447D02*
Y297006D01*
X314855Y270447D02*
Y297006D01*
X315355Y270447D02*
Y297006D01*
X315855Y270447D02*
Y297006D01*
X316355Y270447D02*
Y297006D01*
X316855Y270447D02*
Y297006D01*
X317355Y270447D02*
Y297006D01*
X317855Y270447D02*
Y297006D01*
X318355Y270447D02*
Y297006D01*
X318855Y270447D02*
Y297006D01*
X319355Y270447D02*
Y297006D01*
X319855Y270447D02*
Y297006D01*
X320355Y270447D02*
Y297006D01*
X100000Y100000D02*
Y500000D01*
X400000*
Y275000*
X650000*
Y100000*
X100000*
G54D17*
X256059Y174013D03*
X262545Y146144D03*
X277987Y158421D03*
X244738Y222861D03*
X232058Y194495D03*
X225298Y211743D03*
X214488Y221741D03*
X256752Y222848D03*
X316816Y259049D03*
X297217Y258766D03*
X307355Y258583D03*
X268828Y223084D03*
X283222Y194668D03*
X327848Y290840D03*
X285559D03*
X283844Y275947D03*
X334843Y292409D03*
X277117Y290755D03*
X332098Y275947D03*
X240070Y401675D03*
X257800Y404260D03*
X249308Y381509D03*
X232768Y375995D03*
X241266Y414633D03*
X195778Y403277D03*
X334097Y408854D03*
X266500Y407000D03*
X298098Y419920D03*
X284482Y415213D03*
X282858Y378585D03*
X282626Y391465D03*
X321514Y400753D03*
X231610Y456059D03*
X250097Y442497D03*
X212208Y440186D03*
X180641Y464777D03*
X266000Y433500D03*
X298238Y427339D03*
X297678Y435176D03*
X286528Y438029D03*
G54D28*
X194829Y168293D03*
X335720Y225348D03*
X525433Y115248D03*
X535433D03*
X564399D03*
X574399D03*
X196323Y484810D03*
X206323Y474810D03*
Y484810D03*
X216323Y474810D03*
Y484810D03*
X226323Y474810D03*
Y484810D03*
X236323Y474810D03*
Y484810D03*
X246323Y474810D03*
Y484810D03*
X256323Y474810D03*
Y484810D03*
X434084Y136542D03*
X424084D03*
X434084Y146542D03*
X424084D03*
X434084Y156542D03*
X424084D03*
X434084Y166542D03*
X424084D03*
X434084Y176542D03*
X424084D03*
X434084Y186542D03*
X424084D03*
X434084Y196542D03*
X424084D03*
X434084Y206542D03*
X424084D03*
X434084Y216542D03*
X424084D03*
X434084Y226542D03*
X424084D03*
X434084Y236542D03*
X424084D03*
X434084Y246542D03*
X424084D03*
X434084Y256542D03*
X424084D03*
X299197Y205621D03*
X335589Y155621D03*
Y187117D03*
G54D47*
X437253Y219711D02*
X429484Y211942D01*
Y141142*
X434084Y136542*
X221440Y388034D02*
X225929Y392523D01*
X232767*
X221440Y388034D02*
Y376161D01*
X232896Y364705*
X240070Y401675D02*
Y401691D01*
X250819*
X241266Y414633D02*
Y414487D01*
X250819*
Y404250D02*
X257800D01*
Y404260*
X250819Y417046D02*
X255273D01*
X262150Y410169*
X255508Y390961D02*
X255908D01*
X255908D02*
X262150Y397203D01*
Y410169*
X223853Y400405D02*
Y400805D01*
X228833Y405785*
Y408352*
X245204Y424723*
X250819*
X223853Y406605D02*
Y407005D01*
X244130Y427282*
X250819*
X232767Y392523D02*
Y400524D01*
X240397Y408154*
X241765*
X245539Y411927*
X250819*
X334097Y408854D02*
Y410493D01*
X266500Y407000D02*
Y406809D01*
X273851*
Y419605D02*
X278852D01*
X283863Y414594*
X284482Y415213*
X273851Y411927D02*
X279961D01*
X281026Y410862*
X289177*
X293885Y415570*
X329021*
X334097Y410493*
X273851Y404250D02*
X285666D01*
X290600Y409184*
X297751*
X273851Y401691D02*
X286030D01*
X297751Y389971*
X273851Y399132D02*
X280722D01*
X282441Y397413*
X282626Y391465*
X264942Y368280D02*
X264995D01*
X258224Y423168D02*
Y461108D01*
X264314Y467197*
Y481950*
X268295Y485932*
X286562*
X291805Y480688*
Y475321*
X258224Y423168D02*
X266906Y414487D01*
X273851*
X226323Y474810D02*
X250097Y451037D01*
X250097D02*
Y442497D01*
X206323Y484810D02*
X211323Y479811D01*
Y473182*
X222259Y462247*
Y461847*
X281805Y475321D02*
X261650Y455166D01*
Y424792*
X269396Y417046*
X273851*
Y427282D02*
X289784D01*
X293059Y430556*
X297678Y435176*
X273851Y424723D02*
X290804D01*
X293420Y427339*
X298238*
X273851Y422164D02*
X284905D01*
X287148Y419920*
X298098*
G54D73*
X321406Y409400D03*
X315206D03*
X321406Y389967D03*
X315206D03*
X255508Y390961D03*
X249308D03*
X271266Y438029D03*
X277466D03*
X188018Y416163D03*
X181818D03*
X201978Y391226D03*
X195778D03*
X181818D03*
X188018D03*
X404482Y136497D03*
X398282D03*
X201978Y416163D03*
X195778D03*
X264942Y368280D03*
X271142D03*
G54D80*
X264995Y378585D03*
X273995D03*
G54D83*
X214514Y168293D03*
X335720Y205663D03*
X196323Y474810D03*
X299197Y155621D03*
G54D135*
X375000Y130000D03*
Y470000D03*
X130000D03*
Y130000D03*
Y240000D03*
Y165000D03*
X131155Y427920D03*
Y375029D03*
G54D136*
X232767Y392523D03*
Y386323D03*
X223853Y406605D03*
Y400405D03*
X209385Y397771D03*
Y391571D03*
Y415772D03*
Y409572D03*
X212208Y455707D03*
Y449507D03*
X187982Y400641D03*
Y406841D03*
X222259Y455647D03*
Y461847D03*
X548198Y115219D03*
Y121419D03*
X592611Y115207D03*
Y121407D03*
G54D137*
X180641Y484800D03*
Y475800D03*
X277117Y311066D03*
Y302066D03*
X334843Y311066D03*
Y302066D03*
G54D138*
X439473Y114704D03*
X301805Y475321D03*
X291805D03*
X281805D03*
X271805D03*
X232896Y364705D03*
X250592Y334404D03*
Y311080D03*
X459927Y114704D03*
X469927D03*
X479927D03*
X489927D03*
X193736Y135745D03*
X233494Y135298D03*
X214541Y134457D03*
X181825Y427920D03*
X181784Y375029D03*
G54D139*
X250819Y427282D03*
Y424723D03*
Y422164D03*
Y419605D03*
Y417046D03*
Y414487D03*
Y411927D03*
Y409368D03*
Y406809D03*
Y404250D03*
Y401691D03*
Y399132D03*
X273851D03*
Y401691D03*
Y404250D03*
Y406809D03*
Y409368D03*
Y411927D03*
Y414487D03*
Y417046D03*
Y419605D03*
Y422164D03*
Y424723D03*
Y427282D03*
G54D140*
X297751Y409184D03*
Y389971D03*
G54D141*
X242673Y158421D03*
X249366D03*
X256059D03*
X262752D03*
X269445D03*
X256752Y204421D03*
G54D142*
X316631Y310892D03*
X307355Y299947D03*
X298521Y310892D03*
X307355Y275947D03*
G54D143*
X214488Y195995D03*
Y211743D03*
X191260D03*
Y195995D03*
G54D144*
X130000Y165000D02*
Y167295D01*
X161182*
X189882Y195995*
X191260*
X256059Y174013D02*
X256059D01*
Y158421*
X249366D02*
Y144104D01*
X254425Y139045*
X292480*
X299197Y145761*
Y155621*
X214514Y168293D02*
X234948D01*
X242673Y160567*
Y158421*
X262545Y146144D02*
Y158214D01*
X262752Y158421*
X299197Y155621D02*
X335589D01*
X269445Y158421D02*
X277987D01*
X277987*
X262752D02*
Y170034D01*
X269375Y176657*
X300554*
X310999Y187102*
X322537*
X322551Y187117*
X335589*
X398282Y136497D02*
Y151422D01*
X398371Y151512*
X404482Y136497D02*
X413711D01*
X413755Y136542*
X424084*
X469269Y105362D02*
X555135D01*
X424084Y136542D02*
Y146542D01*
X459927Y114704D02*
X469269Y105362D01*
X439473Y114704D02*
X448814Y105362D01*
X469269*
X555135D02*
X598344D01*
X604550Y111568*
Y116720*
X574399Y115248D02*
X584234D01*
X584276Y115207*
X592611*
X564399Y115248D02*
Y131689D01*
X564415Y131705*
Y146646*
X535433Y115248D02*
Y115219D01*
X548198*
Y121419D02*
X552198D01*
X555135Y118482*
Y105362*
X592611Y121407D02*
X599863D01*
X604550Y116720*
X592611Y121407D02*
Y132717D01*
X592731Y132837*
X130000Y240000D02*
X161625D01*
X189882Y211743*
X191260*
X244738Y204421D02*
Y222861D01*
X244738*
Y204421D02*
X256752D01*
X232058Y194495D02*
X246825D01*
X246825*
X256752Y204421*
X214488Y221741D02*
X214488D01*
Y211743*
X214488*
X225298*
X214488Y195995D02*
Y182820D01*
X214514Y182794*
Y168293*
X256752Y204421D02*
Y222848D01*
X256752*
Y204421D02*
Y194668D01*
X256752*
X283222*
X256752Y204421D02*
X268828D01*
Y223084*
X307355Y258583D02*
Y275947D01*
X307355*
X335589Y187117D02*
Y196324D01*
X335720Y196455*
Y205663*
X371096*
X405732Y203337D02*
X412528Y196542D01*
X424084*
X405732Y203337D02*
Y217483D01*
X414791Y226542*
X424084*
X388785Y223352D02*
X371096Y205663D01*
X398371Y178387*
Y151512*
X437253Y219711D02*
X448165Y230623D01*
X530676*
X592731Y168568*
Y132837*
X434084Y216542D02*
X437253Y219711D01*
X434084Y206542D02*
X504518D01*
X564415Y146646*
X434084Y196542D02*
X498028D01*
X525369Y169201*
Y136940*
X525433Y136876*
Y115248*
X250592Y311080D02*
X277102D01*
X277117Y311066*
X250592Y334404D02*
Y353931D01*
X264942Y368280*
X277117Y332807D02*
X297706Y353396D01*
X341594*
X277117Y332807D02*
Y311066D01*
X307355Y290840D02*
X307355D01*
Y275947*
Y290840D02*
X327848D01*
X307355Y275947D02*
X297217D01*
Y275946*
X297217D02*
Y258766D01*
X285559Y290840D02*
X307355D01*
X283844Y275947D02*
X307355D01*
X307355*
X316816*
Y259049*
X307355Y275947D02*
X307355D01*
X332098*
X307355D02*
Y299947D01*
X298521Y310892D02*
X298882D01*
X316631D02*
X325876D01*
X326050Y311066*
X334843*
Y302066D02*
Y302065D01*
Y292409*
Y311066D02*
X335111D01*
X335111D02*
Y310835D01*
X335111D02*
X388785Y257161D01*
Y223352*
X277117Y302066D02*
Y302065D01*
Y290755*
Y311066D02*
Y311219D01*
X298555*
X298882Y310892*
X131155Y375029D02*
X131433D01*
X131433*
X181784*
X209385Y397771D02*
X195778D01*
X195778D02*
Y403277D01*
X195778D02*
X195778D01*
X249308Y381509D02*
Y390961D01*
X249308*
X181784Y375029D02*
Y383738D01*
X181818Y383772*
Y391226*
X201978Y416163D02*
X202378D01*
X202378D02*
X209385Y416172D01*
Y415772*
X188018Y391226D02*
X195778D01*
X195778D02*
Y397771D01*
X201978Y391226D02*
X202378D01*
X202378D02*
X209385Y391171D01*
Y391571*
X187982Y406841D02*
Y416127D01*
X188018Y416163*
X187982Y400641D02*
Y391226D01*
X188018*
X181818Y416163D02*
Y427920D01*
X181818D02*
X181825D01*
X188018Y416163D02*
X195778D01*
X255508Y390961D02*
X255908D01*
X255908D02*
X260228Y386642D01*
Y382852*
X264495Y378585*
X264995*
X209385Y415772D02*
X215087D01*
X223853Y407005*
Y406605*
X209385Y391571D02*
X215419D01*
X223853Y400005*
Y400405*
X209385Y397771D02*
Y409572D01*
X232767Y386323D02*
Y377465D01*
X232768Y377464*
Y375995*
X264995Y368280D02*
Y378585D01*
X321514Y400753D02*
X321806Y409400D01*
X297751Y389971D02*
X297751D01*
X315206Y389967*
X297751Y409184D02*
X297967Y409400D01*
X315206*
X271142Y368280D02*
X277117Y362305D01*
Y332807*
X273995Y378585D02*
X273996D01*
X282858*
X321406Y389967D02*
Y400753D01*
X321514*
X321406Y409400D02*
X321806D01*
X131155Y427920D02*
X159049D01*
X159049*
X181825*
X206323Y484810D02*
X215118Y493605D01*
X297895*
X327622Y463878*
Y453589*
X196323Y484810D02*
X206323D01*
X196323Y474810D02*
Y463275D01*
X203892Y455707*
X212208*
X222259Y455647D02*
X222351Y455739D01*
X231291*
X231610Y456059*
X180641Y475800D02*
X180641D01*
Y464777*
Y484800D02*
X188227D01*
X188237Y484810*
X196323*
X212208Y449507D02*
X212208D01*
Y440186*
Y455707D02*
X222199D01*
X222259Y455647*
X327622Y453589D02*
X341594Y439617D01*
Y353396*
X310285Y453589D02*
X327622D01*
X266000Y433500D02*
X270950Y438029D01*
X271266*
X301805Y475321D02*
Y464701D01*
X310285Y456222*
Y453589*
X277466Y438029D02*
X286528D01*
X271266D02*
Y442273D01*
X282583Y453589*
X310285*
X0Y0D02*
M02*
